#Comment line ignore any data following # character 
#Hierarchical Translation and Rotation (.htr) file 
[Header]	
#Header keywords are followed by a single value 
FileType HTR		#Single word string
DataType HTRS		#Translation followed by rotation and scale data
FileVersion 1		#integer
NumSegments 84		#integer
NumFrames 2		#integer
DataFrameRate 30		#integer, data frame rate in this file
EulerRotationOrder ZYX
CalibrationUnits mm
RotationUnits Degrees
GlobalAxisofGravity Y
BoneLengthAxis Y
ScaleFactor 1.00
[SegmentNames&Hierarchy]
#CHILD	PARENT
MASTER GLOBAL
root MASTER
chest root
L_mid_tent01 root
R_mid_tent01 root
spine01 root
Bip01_Neck chest
L_humerus chest
R_humerus chest
weapon_bone chest
Bip01_Head Bip01_Neck
eye_left_bone Bip01_Head
eye_right_bone Bip01_Head
L_forearm L_humerus
L_front_hand L_forearm
L_weapon_bone L_forearm
L_front_hand01_01 L_front_hand
L_front_hand02_01 L_front_hand
L_front_hand03_01 L_front_hand
L_front_hand01_02 L_front_hand01_01
L_front_hand02_02 L_front_hand02_01
L_front_hand03_02 L_front_hand03_01
R_forearm R_humerus
R_front_hand R_forearm
R_weapon_bone R_forearm
R_front_hand01_01 R_front_hand
R_front_hand02_01 R_front_hand
R_front_hand03_01 R_front_hand
R_front_hand01_02 R_front_hand01_01
R_front_hand02_02 R_front_hand02_01
R_front_hand03_02 R_front_hand03_01
null_rope01_connect L_mid_tent01
Rope1_Seg01 null_rope01_connect
Rope1_Seg02 Rope1_Seg01
Rope1_Seg03 Rope1_Seg02
Rope1_Seg04 Rope1_Seg03
Rope1_Seg05 Rope1_Seg04
Rope1_Seg06 Rope1_Seg05
Rope1_Seg07 Rope1_Seg06
Rope1_Seg09 Rope1_Seg07
L_mid_hand01 Rope1_Seg09
L_mid_hand02 Rope1_Seg09
L_mid_hand03 Rope1_Seg09
null_rope02_connect R_mid_tent01
Rope2_Seg01 null_rope02_connect
Rope2_Seg02 Rope2_Seg01
Rope2_Seg03 Rope2_Seg02
Rope2_Seg04 Rope2_Seg03
Rope2_Seg05 Rope2_Seg04
Rope2_Seg06 Rope2_Seg05
Rope2_Seg07 Rope2_Seg06
Rope2_Seg09 Rope2_Seg07
R_mid_hand01 Rope2_Seg09
R_mid_hand02 Rope2_Seg09
R_mid_hand03 Rope2_Seg09
spine02 spine01
spine03 spine02
pelvis spine03
null_rope03_connect pelvis
null_rope04_connect pelvis
Rope3_Seg01 null_rope03_connect
Rope3_Seg02 Rope3_Seg01
Rope3_Seg03 Rope3_Seg02
Rope3_Seg04 Rope3_Seg03
Rope3_Seg05 Rope3_Seg04
Rope3_Seg06 Rope3_Seg05
Rope3_Seg07 Rope3_Seg06
Rope3_Seg08 Rope3_Seg07
Rope3_Seg09 Rope3_Seg08
R_rear_hand01 Rope3_Seg09
R_rear_hand02 Rope3_Seg09
R_rear_hand03 Rope3_Seg09
Rope4_Seg01 null_rope04_connect
Rope4_Seg02 Rope4_Seg01
Rope4_Seg03 Rope4_Seg02
Rope4_Seg04 Rope4_Seg03
Rope4_Seg05 Rope4_Seg04
Rope4_Seg06 Rope4_Seg05
Rope4_Seg07 Rope4_Seg06
Rope4_Seg08 Rope4_Seg07
Rope4_Seg09 Rope4_Seg08
L_rear_hand01 Rope4_Seg09
L_rear_hand02 Rope4_Seg09
L_rear_hand03 Rope4_Seg09
[BasePosition]
#SegmentName Tx, Ty, Tz, Rx, Ry, Rz, BoneLength
MASTER 0.000000 0.000000 0.000000 -90.000000 0.000000 0.000000 10.000000 
root 0.000000 0.000000 0.000000 0.000000 0.000000 0.000000 10.000000 
chest 0.000000 0.000000 0.000000 0.000000 0.000000 0.000000 10.000000 
L_mid_tent01 0.000000 0.000000 0.000000 0.000000 0.000000 0.000000 10.000000 
R_mid_tent01 0.000000 0.000000 0.000000 0.000000 0.000000 0.000000 10.000000 
spine01 0.000000 0.000000 0.000000 0.000000 0.000000 0.000000 10.000000 
Bip01_Neck 0.000000 0.000000 0.000000 0.000000 0.000000 0.000000 10.000000 
L_humerus 0.000000 0.000000 0.000000 0.000000 0.000000 0.000000 10.000000 
R_humerus 0.000000 0.000000 0.000000 0.000000 0.000000 0.000000 10.000000 
weapon_bone 0.000000 0.000000 0.000000 0.000000 0.000000 0.000000 10.000000 
Bip01_Head 0.000000 0.000000 0.000000 0.000000 0.000000 0.000000 10.000000 
eye_left_bone 0.000000 0.000000 0.000000 0.000000 0.000000 0.000000 10.000000 
eye_right_bone 0.000000 0.000000 0.000000 0.000000 0.000000 0.000000 10.000000 
L_forearm 0.000000 0.000000 0.000000 0.000000 0.000000 0.000000 10.000000 
L_front_hand 0.000000 0.000000 0.000000 0.000000 0.000000 0.000000 10.000000 
L_weapon_bone 0.000000 0.000000 0.000000 0.000000 0.000000 0.000000 10.000000 
L_front_hand01_01 0.000000 0.000000 0.000000 0.000000 0.000000 0.000000 10.000000 
L_front_hand02_01 0.000000 0.000000 0.000000 0.000000 0.000000 0.000000 10.000000 
L_front_hand03_01 0.000000 0.000000 0.000000 0.000000 0.000000 0.000000 10.000000 
L_front_hand01_02 0.000000 0.000000 0.000000 0.000000 0.000000 0.000000 10.000000 
L_front_hand02_02 0.000000 0.000000 0.000000 0.000000 0.000000 0.000000 10.000000 
L_front_hand03_02 0.000000 0.000000 0.000000 0.000000 0.000000 0.000000 10.000000 
R_forearm 0.000000 0.000000 0.000000 0.000000 0.000000 0.000000 10.000000 
R_front_hand 0.000000 0.000000 0.000000 0.000000 0.000000 0.000000 10.000000 
R_weapon_bone 0.000000 0.000000 0.000000 0.000000 0.000000 0.000000 10.000000 
R_front_hand01_01 0.000000 0.000000 0.000000 0.000000 0.000000 0.000000 10.000000 
R_front_hand02_01 0.000000 0.000000 0.000000 0.000000 0.000000 0.000000 10.000000 
R_front_hand03_01 0.000000 0.000000 0.000000 0.000000 0.000000 0.000000 10.000000 
R_front_hand01_02 0.000000 0.000000 0.000000 0.000000 0.000000 0.000000 10.000000 
R_front_hand02_02 0.000000 0.000000 0.000000 0.000000 0.000000 0.000000 10.000000 
R_front_hand03_02 0.000000 0.000000 0.000000 0.000000 0.000000 0.000000 10.000000 
null_rope01_connect 0.000000 0.000000 0.000000 0.000000 0.000000 0.000000 10.000000 
Rope1_Seg01 0.000000 0.000000 0.000000 0.000000 0.000000 0.000000 10.000000 
Rope1_Seg02 0.000000 0.000000 0.000000 0.000000 0.000000 0.000000 10.000000 
Rope1_Seg03 0.000000 0.000000 0.000000 0.000000 0.000000 0.000000 10.000000 
Rope1_Seg04 0.000000 0.000000 0.000000 0.000000 0.000000 0.000000 10.000000 
Rope1_Seg05 0.000000 0.000000 0.000000 0.000000 0.000000 0.000000 10.000000 
Rope1_Seg06 0.000000 0.000000 0.000000 0.000000 0.000000 0.000000 10.000000 
Rope1_Seg07 0.000000 0.000000 0.000000 0.000000 0.000000 0.000000 10.000000 
Rope1_Seg09 0.000000 0.000000 0.000000 0.000000 0.000000 0.000000 10.000000 
L_mid_hand01 0.000000 0.000000 0.000000 0.000000 0.000000 0.000000 10.000000 
L_mid_hand02 0.000000 0.000000 0.000000 0.000000 0.000000 0.000000 10.000000 
L_mid_hand03 0.000000 0.000000 0.000000 0.000000 0.000000 0.000000 10.000000 
null_rope02_connect 0.000000 0.000000 0.000000 0.000000 0.000000 0.000000 10.000000 
Rope2_Seg01 0.000000 0.000000 0.000000 0.000000 0.000000 0.000000 10.000000 
Rope2_Seg02 0.000000 0.000000 0.000000 0.000000 0.000000 0.000000 10.000000 
Rope2_Seg03 0.000000 0.000000 0.000000 0.000000 0.000000 0.000000 10.000000 
Rope2_Seg04 0.000000 0.000000 0.000000 0.000000 0.000000 0.000000 10.000000 
Rope2_Seg05 0.000000 0.000000 0.000000 0.000000 0.000000 0.000000 10.000000 
Rope2_Seg06 0.000000 0.000000 0.000000 0.000000 0.000000 0.000000 10.000000 
Rope2_Seg07 0.000000 0.000000 0.000000 0.000000 0.000000 0.000000 10.000000 
Rope2_Seg09 0.000000 0.000000 0.000000 0.000000 0.000000 0.000000 10.000000 
R_mid_hand01 0.000000 0.000000 0.000000 0.000000 0.000000 0.000000 10.000000 
R_mid_hand02 0.000000 0.000000 0.000000 0.000000 0.000000 0.000000 10.000000 
R_mid_hand03 0.000000 0.000000 0.000000 0.000000 0.000000 0.000000 10.000000 
spine02 0.000000 0.000000 0.000000 0.000000 0.000000 0.000000 10.000000 
spine03 0.000000 0.000000 0.000000 0.000000 0.000000 0.000000 10.000000 
pelvis 0.000000 0.000000 0.000000 0.000000 0.000000 0.000000 10.000000 
null_rope03_connect 0.000000 0.000000 0.000000 0.000000 0.000000 0.000000 10.000000 
null_rope04_connect 0.000000 0.000000 0.000000 0.000000 0.000000 0.000000 10.000000 
Rope3_Seg01 0.000000 0.000000 0.000000 0.000000 0.000000 0.000000 10.000000 
Rope3_Seg02 0.000000 0.000000 0.000000 0.000000 0.000000 0.000000 10.000000 
Rope3_Seg03 0.000000 0.000000 0.000000 0.000000 0.000000 0.000000 10.000000 
Rope3_Seg04 0.000000 0.000000 0.000000 0.000000 0.000000 0.000000 10.000000 
Rope3_Seg05 0.000000 0.000000 0.000000 0.000000 0.000000 0.000000 10.000000 
Rope3_Seg06 0.000000 0.000000 0.000000 0.000000 0.000000 0.000000 10.000000 
Rope3_Seg07 0.000000 0.000000 0.000000 0.000000 0.000000 0.000000 10.000000 
Rope3_Seg08 0.000000 0.000000 0.000000 0.000000 0.000000 0.000000 10.000000 
Rope3_Seg09 0.000000 0.000000 0.000000 0.000000 0.000000 0.000000 10.000000 
R_rear_hand01 0.000000 0.000000 0.000000 0.000000 0.000000 0.000000 10.000000 
R_rear_hand02 0.000000 0.000000 0.000000 0.000000 0.000000 0.000000 10.000000 
R_rear_hand03 0.000000 0.000000 0.000000 0.000000 0.000000 0.000000 10.000000 
Rope4_Seg01 0.000000 0.000000 0.000000 0.000000 0.000000 0.000000 10.000000 
Rope4_Seg02 0.000000 0.000000 0.000000 0.000000 0.000000 0.000000 10.000000 
Rope4_Seg03 0.000000 0.000000 0.000000 0.000000 0.000000 0.000000 10.000000 
Rope4_Seg04 0.000000 0.000000 0.000000 0.000000 0.000000 0.000000 10.000000 
Rope4_Seg05 0.000000 0.000000 0.000000 0.000000 0.000000 0.000000 10.000000 
Rope4_Seg06 0.000000 0.000000 0.000000 0.000000 0.000000 0.000000 10.000000 
Rope4_Seg07 0.000000 0.000000 0.000000 0.000000 0.000000 0.000000 10.000000 
Rope4_Seg08 0.000000 0.000000 0.000000 0.000000 0.000000 0.000000 10.000000 
Rope4_Seg09 0.000000 0.000000 0.000000 0.000000 0.000000 0.000000 10.000000 
L_rear_hand01 0.000000 0.000000 0.000000 0.000000 0.000000 0.000000 10.000000 
L_rear_hand02 0.000000 0.000000 0.000000 0.000000 0.000000 0.000000 10.000000 
L_rear_hand03 0.000000 0.000000 0.000000 0.000000 0.000000 0.000000 10.000000 
#Beginning of Data. Separated by tabs
#Fr	Tx	Ty	Tz	Rx	Ry	Rz	SF
[MASTER]
23 0.000000 0.000000 0.000000 0.001660 0.001660 0.001660 0.000000
24 0.000000 0.000000 0.000000 0.001660 0.001660 0.001660 0.000000
[root]
23 -44.746368 -21.462954 1357.722900 -88.753349 -28.076992 -88.171280 1358.629517
24 -37.160812 -32.570847 1433.864746 -89.522919 -27.888428 -88.705276 1434.715942
[chest]
23 -84.512650 -34.090519 0.000000 -0.272534 -0.196314 -159.537247 91.129311
24 -84.512650 -34.090519 0.000000 -0.525500 -0.075313 -162.364532 91.129311
[L_mid_tent01]
23 27.309008 22.172047 -249.978134 3.862628 36.229202 81.347610 252.440994
24 27.304291 22.174736 -249.948074 2.980073 37.372406 79.713699 252.410934
[R_mid_tent01]
23 23.228794 24.509907 226.238495 160.432037 -47.061241 87.899765 228.744751
24 23.228794 24.509907 226.238495 160.481293 -47.400692 86.815376 228.744751
[spine01]
23 -0.361383 -0.195265 0.000000 0.001907 0.001369 18.657541 0.410763
24 -0.361383 -0.195265 0.000000 0.001904 0.001373 18.397606 0.410763
[Bip01_Neck]
23 165.484543 71.581718 0.000119 175.896118 1.177290 24.871183 180.302734
24 165.484543 71.581718 0.000119 175.896118 1.177290 24.871183 180.302734
[L_humerus]
23 -13.983130 -135.272980 -120.471481 -179.830048 4.960256 -113.725555 181.680161
24 -13.983130 -135.272980 -120.471481 179.840149 5.591937 -120.325066 181.680161
[R_humerus]
23 -13.983309 -135.273102 125.287651 -179.639572 -1.607667 -121.842201 184.909012
24 -13.983309 -135.273102 125.287651 -179.639572 -1.607667 -121.842186 184.909012
[weapon_bone]
23 235.964890 -300.705902 0.000000 0.000000 -89.951546 -128.212341 382.234833
24 235.964890 -300.705902 0.000000 0.000000 -89.951546 -128.212341 382.234833
[Bip01_Head]
23 102.819824 23.735628 5.410252 3.150732 3.423701 -20.839092 105.662514
24 102.819824 23.735638 5.410245 3.150732 3.423701 -20.839092 105.662514
[eye_left_bone]
23 -24.626970 125.451866 -64.772606 0.000000 -90.000000 -99.840431 143.318359
24 -24.626970 125.451866 -64.772606 0.000000 -90.000000 -99.840431 143.318359
[eye_right_bone]
23 -24.626970 125.451866 64.327362 0.000000 -89.960434 80.159386 143.117676
24 -24.626970 125.451866 64.327362 0.000000 -89.960434 80.159386 143.117676
[L_forearm]
23 322.776093 0.000000 -0.000119 0.000017 0.002347 -89.149834 322.776093
24 322.776093 0.000000 -0.000119 0.000017 0.002347 -89.149834 322.776093
[L_front_hand]
23 241.149185 -0.042021 -3.300071 -177.814835 0.602967 -96.864525 241.171753
24 241.149185 -0.042021 -3.300071 -177.790451 0.512155 -94.470367 241.171753
[L_weapon_bone]
23 153.225800 21.309792 0.000610 0.001984 0.001254 25.427876 154.700531
24 153.019562 22.795151 0.000687 0.001971 0.001274 24.258039 154.708130
[L_front_hand01_01]
23 86.095154 20.947098 -0.655860 0.405585 -0.442306 -4.620490 88.609184
24 86.095154 20.947098 -0.655860 0.405585 -0.442306 -4.620490 88.609184
[L_front_hand02_01]
23 86.935165 -11.437475 24.513514 116.959450 3.630818 1.495453 91.046425
24 86.935165 -11.437475 24.513514 116.959450 3.630817 1.495453 91.046425
[L_front_hand03_01]
23 86.637497 -14.123976 -20.424902 -118.420097 -4.656303 -0.152527 90.126129
24 86.637497 -14.123976 -20.424902 -118.420097 -4.656303 -0.152527 90.126129
[L_front_hand01_02]
23 71.020905 -0.000179 0.000030 0.000004 -0.000005 -8.379269 71.020905
24 71.020905 -0.000179 0.000030 0.000004 -0.000005 -8.379269 71.020905
[L_front_hand02_02]
23 71.020927 -0.000119 0.000060 -0.000005 -0.000004 -8.379259 71.020927
24 71.020927 -0.000119 0.000060 -0.000005 -0.000004 -8.379259 71.020927
[L_front_hand03_02]
23 71.020905 -0.000060 0.000060 0.000015 -0.000040 -8.379267 71.020905
24 71.020905 -0.000060 0.000060 0.000015 -0.000040 -8.379267 71.020905
[R_forearm]
23 322.776428 -0.000060 0.000030 0.209842 -0.000740 -90.877739 322.776428
24 322.776428 -0.000060 0.000030 0.209843 -0.000486 -91.016464 322.776428
[R_front_hand]
23 238.847015 -0.006795 2.210259 -1.672521 -0.434535 -93.313141 238.857239
24 238.847015 -0.006795 2.210259 -1.666406 -0.456541 -94.072601 238.857239
[R_weapon_bone]
23 155.664093 0.002503 -0.000030 0.003305 0.001619 -105.810318 155.664078
24 155.664093 0.002503 -0.000030 0.003325 0.001580 -104.433754 155.664078
[R_front_hand01_01]
23 87.624611 14.231146 22.918642 -116.960213 3.496675 -1.324139 91.683487
24 87.624611 14.231146 22.918642 -116.960205 3.496675 -1.324138 91.683487
[R_front_hand02_01]
23 89.356956 14.367283 -19.491137 118.419647 -4.257089 0.609827 92.579636
24 89.356956 14.367283 -19.491137 118.419647 -4.257089 0.609827 92.579636
[R_front_hand03_01]
23 87.286232 -22.307278 -0.143439 -0.387970 -0.231462 4.232001 90.091743
24 87.286232 -22.307278 -0.143439 -0.387970 -0.231462 4.232001 90.091743
[R_front_hand01_02]
23 71.020905 0.000060 0.000119 -0.000005 -0.000020 8.379271 71.020905
24 71.020905 0.000060 0.000119 -0.000005 -0.000020 8.379271 71.020905
[R_front_hand02_02]
23 71.020844 -0.000030 -0.000119 0.000000 -0.000021 8.379271 71.020836
24 71.020844 -0.000030 -0.000119 0.000000 -0.000021 8.379271 71.020836
[R_front_hand03_02]
23 71.020905 0.000000 0.000030 -0.000001 -0.000020 8.379275 71.020905
24 71.020905 0.000000 0.000030 -0.000001 -0.000020 8.379275 71.020905
[null_rope01_connect]
23 328.732483 0.000000 -0.000238 -138.237762 -56.037647 176.545151 328.732483
24 328.732483 0.000000 -0.000238 -138.039200 -53.863323 177.499023 328.732483
[Rope1_Seg01]
23 0.000028 -0.000052 0.000096 109.804245 9.252963 129.054916 0.000113
24 0.000026 -0.000051 0.000100 109.144371 31.385761 133.637665 0.000116
[Rope1_Seg02]
23 139.999863 -0.000179 0.000000 -6.827754 -22.513514 -2.942523 139.999863
24 139.999863 -0.000179 0.000000 -1.844414 -18.991329 1.232989 139.999863
[Rope1_Seg03]
23 139.999924 0.000060 -0.000060 -11.038453 -20.962994 -5.012447 139.999924
24 139.999924 0.000060 -0.000060 -6.642962 -21.755306 3.050248 139.999924
[Rope1_Seg04]
23 139.999924 -0.000060 -0.000119 -7.720490 -9.309757 -7.342360 139.999924
24 139.999924 -0.000060 -0.000119 -6.451846 -9.942871 -7.403397 139.999924
[Rope1_Seg05]
23 139.999832 0.000119 -0.000060 -2.150732 -2.000649 -2.548444 139.999832
24 139.999832 0.000119 -0.000060 -1.634368 -1.454252 -2.861763 139.999832
[Rope1_Seg06]
23 139.999954 0.000119 -0.000060 -1.234917 -1.230089 -1.384908 139.999954
24 139.999954 0.000119 -0.000060 -0.886664 -1.120647 -1.216318 139.999954
[Rope1_Seg07]
23 139.999985 0.000060 0.000000 -0.759205 -0.751005 -0.878686 139.999985
24 139.999985 0.000060 0.000000 -0.542816 -0.679537 -0.761728 139.999985
[Rope1_Seg09]
23 121.602913 0.000119 -0.000089 -89.793175 -1.359789 0.847147 121.602913
24 121.602913 0.000119 -0.000089 -89.793175 -1.359789 0.847147 121.602913
[L_mid_hand01]
23 103.859421 1.038730 8.195221 104.352036 0.341479 -0.444583 104.187431
24 103.859421 1.038730 8.195221 104.352036 0.341479 -0.444584 104.187431
[L_mid_hand02]
23 105.572853 -4.139662 -10.864139 -135.608444 3.905687 -3.381056 106.211075
24 105.572853 -4.139662 -10.864139 -135.608444 3.905687 -3.381056 106.211075
[L_mid_hand03]
23 104.641464 17.579376 -3.913581 -18.761518 -0.324361 2.942912 106.179977
24 104.641464 17.579376 -3.913581 -18.761515 -0.324361 2.942912 106.179977
[null_rope02_connect]
23 328.732849 0.000179 -0.000119 -123.595215 37.315941 17.859205 328.732849
24 328.732849 0.000179 -0.000119 -122.824493 38.141308 17.690628 328.732849
[Rope2_Seg01]
23 0.000129 0.000114 -0.000096 -51.688568 21.035597 35.741608 0.000197
24 0.000128 0.000114 -0.000100 -59.847424 39.710186 32.737064 0.000199
[Rope2_Seg02]
23 139.999741 -0.000060 -0.000119 -3.700352 -9.076751 19.616739 139.999756
24 139.999741 -0.000060 -0.000119 -2.639799 -11.338007 11.427073 139.999756
[Rope2_Seg03]
23 140.000107 0.000030 0.000000 0.187232 -9.139084 17.514372 140.000107
24 140.000107 0.000030 0.000000 -0.792408 -10.179672 8.008308 140.000107
[Rope2_Seg04]
23 139.999802 0.000000 -0.000060 3.506537 -11.634338 17.718609 139.999802
24 139.999802 0.000000 -0.000060 0.759791 -15.340873 20.242317 139.999802
[Rope2_Seg05]
23 139.999985 -0.000060 0.000119 2.308614 -2.733739 5.010118 139.999985
24 139.999985 -0.000060 0.000119 2.368534 -4.433107 6.869626 139.999985
[Rope2_Seg06]
23 139.999893 -0.000030 -0.000119 1.374735 -1.216236 2.544530 139.999893
24 139.999893 -0.000030 -0.000119 1.247985 -1.796012 2.876159 139.999893
[Rope2_Seg07]
23 139.999893 0.000060 -0.000060 0.911782 -0.713362 1.588629 139.999893
24 139.999893 0.000060 -0.000060 0.826807 -1.034848 1.745153 139.999893
[Rope2_Seg09]
23 121.338966 0.000089 -0.000060 33.793236 -1.359788 -0.847141 121.338966
24 121.338966 0.000089 -0.000060 33.793236 -1.359788 -0.847141 121.338966
[R_mid_hand01]
23 104.680779 11.144459 -10.335981 -47.384258 2.963522 5.452604 105.778534
24 104.680779 11.144459 -10.335981 -47.384266 2.963523 5.452605 105.778534
[R_mid_hand02]
23 104.070427 2.443552 8.231699 75.626297 -2.250001 1.111093 104.424065
24 104.070427 2.443552 8.231699 75.626297 -2.250001 1.111093 104.424065
[R_mid_hand03]
23 106.028137 -11.221827 -5.996406 -164.381912 2.495983 -6.140520 106.788818
24 106.028137 -11.221827 -5.996406 -164.381912 2.495983 -6.140520 106.788818
[spine02]
23 129.756927 0.001550 0.000119 -0.900187 -3.965735 4.871809 129.756927
24 129.756927 0.001550 0.000119 -0.851460 -3.976903 4.174273 129.756927
[spine03]
23 78.862129 0.044337 -2.477115 -0.477935 4.424763 -15.296339 78.901039
24 78.843063 0.047699 -2.663400 -0.411440 4.412589 -14.529928 78.888054
[pelvis]
23 169.435242 0.051022 0.000000 -3.251446 -1.709989 5.462743 169.435257
24 169.435242 0.051022 0.000000 -2.976057 -1.599153 4.847980 169.435257
[null_rope03_connect]
23 -1.257226 -2.466202 137.391083 133.093445 -86.140862 -28.583073 137.418976
24 -1.257226 -2.466202 137.391083 147.716614 -86.475136 -42.625977 137.418976
[null_rope04_connect]
23 -1.259640 -2.480268 -137.844437 133.093445 -86.140862 -28.583073 137.872513
24 -1.259640 -2.480268 -137.844437 147.716614 -86.475136 -42.625977 137.872513
[Rope3_Seg01]
23 -0.000042 0.000019 -0.000004 -130.703659 -41.264454 -83.726974 0.000046
24 -0.000041 0.000014 -0.000003 -130.447876 -32.521744 -82.809952 0.000044
[Rope3_Seg02]
23 139.999924 -0.000119 0.000060 -1.204621 2.280814 -8.742285 139.999924
24 139.999924 -0.000119 0.000060 -1.996095 3.918233 -12.922224 139.999924
[Rope3_Seg03]
23 139.999924 -0.000119 0.000119 -2.859855 3.172968 -11.359979 139.999924
24 139.999924 -0.000119 0.000119 -4.866866 4.829729 -15.679130 139.999924
[Rope3_Seg04]
23 139.999924 0.000119 0.000000 -4.908054 1.783112 -14.479948 139.999924
24 139.999924 0.000119 0.000000 -7.240644 3.261533 -16.265278 139.999924
[Rope3_Seg05]
23 139.999924 -0.000238 0.000060 -9.321725 5.647024 -13.673653 139.999924
24 139.999924 -0.000238 0.000060 -9.708551 9.092929 -9.419011 139.999924
[Rope3_Seg06]
23 139.999893 -0.000119 -0.000060 -9.079165 12.381675 -4.423954 139.999893
24 139.999893 -0.000119 -0.000060 -6.303689 11.242454 -1.669557 139.999893
[Rope3_Seg07]
23 139.999771 0.000060 -0.000119 -4.057515 9.296679 -0.114877 139.999771
24 139.999771 0.000060 -0.000119 -3.018626 7.121642 -0.909942 139.999771
[Rope3_Seg08]
23 139.999985 -0.000060 0.000000 -1.699963 4.670047 -0.820119 139.999985
24 139.999985 -0.000060 0.000000 -1.310661 4.030199 -0.727434 139.999985
[Rope3_Seg09]
23 90.185997 -0.000179 -0.000060 89.793228 -1.359877 -0.847183 90.185997
24 90.185997 -0.000179 -0.000060 89.793228 -1.359877 -0.847183 90.185997
[R_rear_hand01]
23 103.366196 -6.073594 -10.757982 -156.049316 6.070419 -2.795869 104.101845
24 103.366196 -6.073594 -10.757982 -156.049316 6.070419 -2.795869 104.101845
[R_rear_hand02]
23 100.509819 12.039542 -7.992327 -38.708435 1.958051 5.461186 101.543350
24 100.509819 12.039542 -7.992327 -38.708439 1.958052 5.461187 101.543350
[R_rear_hand03]
23 101.539970 5.215704 5.435467 84.307625 -2.361032 4.099037 101.819031
24 101.539970 5.215704 5.435467 84.307625 -2.361032 4.099037 101.819031
[Rope4_Seg01]
23 -0.000018 -0.000044 -0.000124 38.866207 -47.994114 -84.377213 0.000133
24 -0.000019 -0.000049 -0.000126 41.190620 -39.409302 -87.732048 0.000137
[Rope4_Seg02]
23 139.999985 0.000060 0.000119 0.416051 -9.916050 1.003123 139.999985
24 139.999985 0.000060 0.000119 0.560843 -14.645382 2.712291 139.999985
[Rope4_Seg03]
23 139.999924 0.000000 -0.000238 1.716571 -12.729836 1.178857 139.999924
24 139.999924 0.000000 -0.000238 2.657697 -15.988076 0.577543 139.999924
[Rope4_Seg04]
23 139.999985 0.000000 0.000119 2.774935 -17.050814 -5.238092 139.999985
24 139.999985 0.000000 0.000119 4.163910 -14.731202 -0.866159 139.999985
[Rope4_Seg05]
23 139.999802 -0.000060 -0.000119 10.685104 -11.326132 9.410647 139.999802
24 139.999802 -0.000060 -0.000119 11.082263 -5.584485 15.023558 139.999802
[Rope4_Seg06]
23 139.999924 0.000000 0.000060 10.560670 2.041083 17.548676 139.999924
24 139.999924 0.000000 0.000060 6.958108 1.944702 14.039512 139.999924
[Rope4_Seg07]
23 139.999802 0.000000 0.000000 3.580631 1.605761 8.020554 139.999802
24 139.999802 0.000000 0.000000 2.506646 0.355778 5.997916 139.999802
[Rope4_Seg08]
23 139.999924 0.000000 0.000119 0.014825 0.530654 3.909622 139.999924
24 139.999924 0.000000 0.000119 -0.271748 0.291715 3.384330 139.999924
[Rope4_Seg09]
23 90.185791 0.000060 0.000060 -135.617828 2.228885 0.850567 90.185791
24 90.185791 0.000060 0.000060 -135.617828 2.228885 0.850567 90.185791
[L_rear_hand01]
23 101.696655 -8.392275 -7.654577 -38.746338 0.246096 177.290207 102.329041
24 101.696655 -8.392275 -7.654577 -38.746338 0.246096 177.290207 102.329041
[L_rear_hand02]
23 102.726799 -1.568258 5.773216 84.315163 -1.142796 176.247437 102.900848
24 102.726799 -1.568258 5.773216 84.315163 -1.142796 176.247437 102.900848
[L_rear_hand03]
23 104.552910 9.721220 -10.420293 -155.747955 -4.630845 179.564758 105.519653
24 104.552910 9.721220 -10.420293 -155.747955 -4.630845 179.564758 105.519653
